<svg xmlns="http://www.w3.org/2000/svg" fill="#ffffff" class="bi bi-fire" viewBox="0 0 8 8" id="Fire--Streamline-Bootstrap" height="8" width="8">
  <desc>
    Fire Streamline Icon: https://streamlinehq.com
  </desc>
  <path d="M4 8c1.657 0 3 -1 3 -2.75 0 -0.75 -0.25 -2 -1.25 -3 0.125 0.75 -0.625 1 -0.625 1C5.5 2 4.5 0.25 3 0c0.1785 1 0.25 2 -1 3 -0.625 0.5 -1 1.3645 -1 2.25C1 7 2.343 8 4 8m0 -0.5c-0.8285 0 -1.5 -0.5 -1.5 -1.375 0 -0.375 0.125 -1 0.625 -1.5C3.0625 5 3.5 5.25 3.5 5.25c-0.1875 -0.625 0.25 -1.625 1 -1.75 -0.0895 0.5 -0.125 1 0.5 1.5 0.3125 0.25 0.5 0.682 0.5 1.125C5.5 7 4.8285 7.5 4 7.5" stroke-width="0.5"></path>
</svg>