<svg width="28" height="28" viewBox="0 0 28 28" fill="none" xmlns="http://www.w3.org/2000/svg">
<path d="M23.5515 12.8202C24.898 11.9036 25.8524 10.5632 26.3052 9.06187C26.444 9.25158 26.5758 9.44852 26.6998 9.65303C27.5457 11.0468 28 12.7291 28 14.7356C28 17.8156 26.8339 19.9703 25.6472 21.3511C25.0586 22.0361 24.4688 22.5268 24.0211 22.8494C23.9429 22.9055 23.869 22.9567 23.8 23.0032V25.5566C23.8 26.906 22.7031 28 21.35 28H19.6C18.4402 28 17.5 27.0623 17.5 25.9056H14.7C14.7 27.0623 13.7598 28 12.6 28H10.85C9.4969 28 8.4 26.906 8.4 25.5566V24.6033C8.20672 24.5384 7.98742 24.4577 7.75002 24.3587C6.91551 24.0104 5.82337 23.4206 4.85754 22.4573C3.7599 21.3626 3.02473 20.2204 2.61114 19.4819C2.48907 19.2639 2.30675 19.1476 2.15069 19.1217C0.909622 18.9154 0 17.8445 0 16.5897V14.1422C0 12.9656 0.852964 11.9614 2.01671 11.7679C2.13839 11.7476 2.3177 11.6271 2.40311 11.372C2.6724 10.5674 3.19493 9.37011 4.15754 8.41007C4.94493 7.62481 5.81683 7.04795 6.47906 6.67055C6.66998 6.56174 6.84576 6.46822 7 6.38992V2.40827C7 1.09873 8.58287 0.561201 9.4358 1.40825C9.89843 1.86769 10.5701 2.48042 11.3135 2.9921C12.0555 3.50281 12.7648 3.83935 13.3493 3.91354C12.671 5.25737 12.4291 6.81275 12.7194 8.34653C12.9727 9.68363 13.9986 10.5285 14.9624 10.9265L20.1363 13.0633C21.1001 13.4614 22.4245 13.5873 23.5515 12.8202ZM8.4 12.6411C9.17319 12.6411 9.8 12.016 9.8 11.2449C9.8 10.4738 9.17319 9.84864 8.4 9.84864C7.62681 9.84864 7 10.4738 7 11.2449C7 12.016 7.62681 12.6411 8.4 12.6411Z" fill="#3498DB"/>
<path d="M22.605 11.6685C23.9139 10.7191 24.7509 9.22547 24.9526 7.60614C25.0752 6.62195 24.963 5.59124 24.5798 4.60811C23.4174 1.62681 20.2009 0.211302 17.3953 1.4465C14.9481 2.524 13.6219 5.26268 14.0948 7.92344C14.1288 8.11382 14.1897 8.29177 14.2726 8.45627C14.3412 8.59247 14.4247 8.71944 14.5205 8.83657C14.7718 9.14374 15.1065 9.38325 15.4723 9.54421L20.5526 11.7798C21.2263 12.0763 22.0026 12.1053 22.605 11.6685Z" fill="#3498DB"/>
</svg>
